HIERARCHY
ROOT hip
{
	OFFSET 0.000000 0.000000 0.000000 
	CHANNELS 6 Xposition Yposition Zposition Xrotation Zrotation Yrotation
	JOINT abdomen
	{
		OFFSET 0.000000 3.402643 0.000000 
		CHANNELS 3 Xrotation Zrotation Yrotation
		JOINT chest
		{
			OFFSET 0.000000 8.438565 -0.680529 
			CHANNELS 3 Xrotation Zrotation Yrotation
			JOINT neck
			{
				OFFSET 0.000000 10.207942 -0.272212 
				CHANNELS 3 Xrotation Zrotation Yrotation
				JOINT head
				{
					OFFSET 0.000000 3.130431 0.000000 
					CHANNELS 3 Xrotation Zrotation Yrotation
					End Site
					{
						OFFSET 0.000000 3.130435 0.000000 
					}
				}
			}
			JOINT lCollar
			{
				OFFSET 3.470700 6.669187 -0.816635 
				CHANNELS 3 Yrotation Zrotation Xrotation
				JOINT lShldr
				{
					OFFSET 3.198488 0.000000 0.000000 
					CHANNELS 3 Zrotation Yrotation Xrotation
					JOINT lForeArm
					{
						OFFSET 10.139888 0.000000 0.000000 
						CHANNELS 3 Yrotation Zrotation Xrotation
						JOINT lHand
						{
							OFFSET 8.370511 0.000000 0.000000 
							CHANNELS 3 Zrotation Yrotation Xrotation
							End Site
							{
								OFFSET 4.083176 0.000000 0.000000 
							}
						}
					}
				}
			}
			JOINT rCollar
			{
				OFFSET -3.470700 6.669187 -0.816635 
				CHANNELS 3 Yrotation Zrotation Xrotation
				JOINT rShldr
				{
					OFFSET -3.198488 0.000000 0.000000 
					CHANNELS 3 Zrotation Yrotation Xrotation
					JOINT rForeArm
					{
						OFFSET -10.139888 0.000000 0.000000 
						CHANNELS 3 Yrotation Zrotation Xrotation
						JOINT rHand
						{
							OFFSET -8.370511 0.000000 0.000000 
							CHANNELS 3 Zrotation Yrotation Xrotation
							End Site
							{
								OFFSET -4.083176 0.000000 0.000000 
							}
						}
					}
				}
			}
		}
	}
	JOINT lThigh
	{
		OFFSET 5.308129 -1.633274 1.361059 
		CHANNELS 3 Xrotation Zrotation Yrotation
		JOINT lShin
		{
			OFFSET -2.041588 -20.007561 0.000000 
			CHANNELS 3 Xrotation Zrotation Yrotation
			JOINT lFoot
			{
				OFFSET 0.000000 -19.190928 -1.224953 
				CHANNELS 3 Xrotation Yrotation Zrotation
				End Site
				{
					OFFSET 0.000000 -2.449906 4.627600 
				}
			}
		}
	}
	JOINT rThigh
	{
		OFFSET -5.308129 -1.633274 1.361059 
		CHANNELS 3 Xrotation Zrotation Yrotation
		JOINT rShin
		{
			OFFSET 2.041588 -20.007561 0.000000 
			CHANNELS 3 Xrotation Zrotation Yrotation
			JOINT rFoot
			{
				OFFSET 0.000000 -19.190928 -1.224953 
				CHANNELS 3 Xrotation Yrotation Zrotation
				End Site
				{
					OFFSET 0.000000 -2.449906 4.627600 
				}
			}
		}
	}
}
MOTION
Frames: 8
Frame Time: 0.033333
-0.423929 48.965874 0.842626 6.085838 4.110115 -4.189917 0.000000 0.000000 0.000000 -10.486885 -4.023265 5.667724 35.420055 -4.413888 -0.510064 -21.915424 2.198497 5.042836 -11.922783 8.171065 24.990292 -80.796265 5.858971 -12.883853 -52.955784 -10.024902 79.400093 -9.777334 -9.448526 -61.104790 6.338558 -9.370923 24.992598 67.925354 8.425426 76.842148 18.169615 -44.836094 23.919582 32.208130 4.796035 -80.268669 -4.198066 6.401797 19.127802 25.001019 1.986051 -0.395339 -9.538864 4.403271 -22.803993 -14.294212 -11.296700 -1.808759 38.778500 -0.400514 2.403378 -8.198695 1.541838 28.849125 
-0.353245 48.943588 0.955223 4.964128 5.047278 -3.842471 0.000000 0.000000 0.000000 -9.616487 -5.366973 5.384340 35.920841 -3.925650 -0.470324 -21.281878 2.012279 5.472226 -12.150743 8.837852 24.992769 -77.699364 5.503574 -14.219241 -51.977203 -11.048523 79.487259 -9.782299 -7.386113 -61.446609 6.227878 -9.454151 24.999922 63.230522 9.240058 74.631760 24.382689 -44.434956 36.534645 32.165730 4.265127 -80.392075 -2.684688 5.200665 18.798012 24.424974 1.820202 -0.435175 -9.506639 4.422960 -22.664373 -12.330619 -13.062512 -2.452790 37.857746 0.537081 2.495402 -8.147006 2.054914 28.337805 
-0.285940 48.891121 0.906394 5.401465 5.623890 -3.571051 0.000000 0.000000 0.000000 -10.152296 -5.883293 5.281210 36.125919 -3.925650 -0.470324 -21.349167 1.915922 5.198277 -12.453422 8.934090 24.995344 -75.753654 4.828356 -14.966455 -50.219803 -9.968926 78.962891 -10.731074 -7.406080 -61.181625 6.380916 -10.453199 24.996243 60.929066 10.709190 73.305931 25.532204 -42.725128 40.213249 31.885386 5.228587 -80.307243 -3.445349 4.447670 18.482893 24.625973 2.034618 -0.358262 -9.576893 4.504849 -22.424723 -12.914725 -13.968463 -2.724704 38.059155 0.839636 2.583479 -8.205261 2.233487 28.221928 
-0.278074 48.850361 0.867947 5.771253 5.319794 -3.893729 0.000000 0.000000 0.000000 -10.561306 -5.474184 5.356086 36.146694 -3.994001 -0.480074 -21.373795 1.440294 4.777069 -12.303574 8.841489 24.993605 -74.033051 3.873518 -15.575704 -46.957527 -7.526490 74.926910 -10.404526 -5.260721 -61.898010 6.444729 -11.136576 24.998558 59.680355 12.131893 72.439079 23.185764 -42.191544 39.595528 34.300957 3.354767 -80.641495 -4.185970 4.932723 18.653032 25.471176 2.097743 -0.411639 -10.013016 4.635793 -22.410372 -13.765205 -13.306068 -2.472669 38.588947 0.312509 2.523939 -8.310156 2.246779 28.482779 
-0.238962 48.864647 0.890134 5.329864 5.249037 -4.285385 0.000000 0.000000 0.000000 -10.235931 -5.289023 5.403791 36.199272 -4.267416 -0.499573 -21.057688 1.207233 4.483483 -12.315286 8.322591 24.993382 -73.267128 3.545559 -15.870137 -44.633408 -4.872718 70.521645 -10.279529 -4.333081 -62.294167 6.329917 -11.383629 24.994762 59.138126 13.549492 71.885956 18.267271 -41.472393 33.062569 34.318626 3.869337 -80.678505 -3.561824 4.962743 18.683001 25.348713 2.019148 -0.454696 -9.992990 4.952653 -22.660131 -13.432720 -13.110220 -2.400701 38.638435 0.035353 2.434841 -8.367435 2.446260 28.471748 
-0.152200 48.874573 0.921505 4.773302 5.490914 -4.502928 0.000000 0.000000 0.000000 -9.798029 -5.571502 5.347300 36.245785 -4.081882 -0.489823 -20.979877 0.993281 4.307346 -12.384783 8.475148 24.993927 -73.775871 2.988022 -15.592912 -41.796619 -2.197336 62.523121 -8.216824 -4.458973 -62.858608 6.177261 -11.377971 24.994534 58.891209 14.614032 71.539658 13.630580 -40.298798 21.906637 31.953398 1.057903 -80.895981 -2.636021 4.537552 18.538870 24.822884 1.878562 -0.413378 -9.847041 5.231917 -22.740860 -12.799176 -13.648188 -2.619217 38.452747 0.302741 2.504897 -8.315997 2.782454 28.169449 
-0.151103 48.900459 0.900444 4.769190 5.511689 -4.326087 0.000000 0.000000 0.000000 -9.753714 -5.902741 5.281208 36.424393 -3.554578 -0.450171 -21.133364 0.954626 4.063074 -12.430582 8.835443 24.995764 -74.399307 2.553905 -15.300811 -41.025108 -0.989078 57.777840 -6.415128 -6.571060 -62.918007 6.143021 -10.756856 24.996964 58.508869 15.067162 71.275772 10.975348 -38.808903 9.722328 29.791653 -0.621390 -80.838623 -2.761518 4.435709 18.506914 24.851929 1.990067 -0.440262 -9.758944 5.200123 -22.785660 -13.025000 -13.610570 -2.610143 38.793575 0.214808 2.520238 -8.418721 2.297816 28.146858 
-0.081367 48.850880 0.897755 4.974639 6.004451 -3.504975 0.000000 0.000000 0.000000 -9.971547 -6.682531 5.112855 36.604309 -3.037028 -0.420884 -21.268652 0.847525 4.014243 -13.084782 9.619109 24.988697 -75.574066 2.077386 -14.752939 -41.950283 -1.603088 57.192230 -5.493600 -5.868596 -63.260658 5.678356 -11.034671 24.994690 59.949467 15.794457 71.722000 10.000504 -39.955093 8.695642 28.173410 -0.327923 -80.805092 -3.279596 3.492418 18.222069 24.906384 2.894435 -0.238968 -9.689610 4.186227 -23.501888 -13.434531 -14.849883 -3.013026 39.655655 0.898419 2.770912 -8.992926 2.476118 27.537582 
